<?xml version="1.0" standalone="no"?>
<!DOCTYPE svg PUBLIC "-//W3C//DTD SVG 20010904//EN"
 "http://www.w3.org/TR/2001/REC-SVG-20010904/DTD/svg10.dtd">
<svg version="1.0" xmlns="http://www.w3.org/2000/svg"
 width="4580.000000pt" height="1180.000000pt" viewBox="0 0 4580.000000 1180.000000"
 preserveAspectRatio="xMidYMid meet">
<metadata>
Created by potrace 1.16, written by Peter Selinger 2001-2019
</metadata>
<g transform="translate(0.000000,1180.000000) scale(0.100000,-0.100000)"
fill="#000000" stroke="none">
<path d="M6980 6025 l0 -5675 1375 0 1375 0 0 5675 0 5675 -1375 0 -1375 0 0
-5675z"/>
<path d="M21013 11309 c-527 -76 -982 -444 -1166 -944 -68 -187 -92 -332 -84
-525 15 -356 154 -680 404 -941 208 -216 456 -358 748 -427 100 -24 129 -26
325 -27 172 0 232 4 300 18 404 87 729 307 957 647 100 149 181 351 219 545
26 135 24 350 -5 485 -64 301 -194 543 -407 756 -225 225 -518 370 -837 413
-92 13 -365 12 -454 0z"/>
<path d="M38722 10613 c-38 -115 -369 -1102 -736 -2194 -366 -1093 -666 -1992
-666 -1998 0 -8 267 -10 1012 -9 l1011 3 1019 2195 c560 1207 1018 2198 1018
2202 0 5 -582 8 -1294 8 l-1294 0 -70 -207z"/>
<path d="M42300 7953 c-92 -5 -318 -33 -450 -54 -502 -83 -1004 -280 -1378
-541 -483 -337 -820 -793 -971 -1313 -47 -164 -64 -283 -69 -498 -12 -543 103
-964 366 -1342 78 -112 295 -326 417 -412 369 -260 750 -396 1395 -498 295
-47 516 -115 716 -223 186 -99 288 -202 325 -324 25 -83 4 -265 -42 -362 -105
-224 -427 -327 -985 -313 -191 4 -219 7 -329 35 -411 105 -807 294 -1319 629
-87 57 -162 101 -166 96 -4 -4 -83 -152 -175 -328 -92 -176 -184 -351 -205
-390 -48 -89 -530 -1006 -559 -1062 l-21 -43 47 -30 c74 -46 402 -211 558
-280 711 -315 1425 -500 2120 -551 180 -13 659 -7 820 11 759 83 1380 320
1885 719 121 95 347 320 432 431 281 364 449 756 523 1225 22 137 31 520 16
666 -95 911 -717 1529 -1816 1803 -159 39 -245 55 -500 91 -132 19 -283 46
-335 60 -336 91 -538 268 -548 482 -11 213 135 398 377 477 116 38 194 49 341
49 402 0 968 -135 1397 -333 47 -22 90 -40 95 -40 5 0 67 118 137 263 70 144
252 516 404 827 151 311 277 571 279 578 3 15 -63 41 -302 121 -585 197 -1157
319 -1708 366 -165 13 -599 18 -772 8z"/>
<path d="M3735 7935 c-536 -60 -1185 -287 -1688 -592 -461 -279 -843 -621
-1139 -1018 -414 -557 -659 -1221 -729 -1978 -15 -169 -6 -750 15 -902 64
-472 152 -774 330 -1140 234 -481 561 -879 1011 -1230 622 -485 1477 -836
2245 -921 257 -28 838 -11 1192 36 488 64 881 186 1091 337 l47 35 0 1054 0
1054 -77 -54 c-314 -218 -730 -336 -1243 -353 -351 -11 -609 39 -888 173 -520
249 -879 715 -993 1285 -61 303 22 803 190 1154 235 491 621 783 1178 892 129
25 157 26 423 27 293 1 365 -5 560 -46 151 -32 330 -94 464 -162 139 -70 220
-125 319 -216 l67 -62 -2 1113 -3 1113 -90 48 c-232 123 -562 225 -930 287
-418 70 -1035 100 -1350 66z"/>
<path d="M13575 7939 c-779 -74 -1590 -470 -2180 -1063 -781 -786 -1163 -1842
-1114 -3083 36 -923 301 -1681 812 -2326 105 -134 393 -421 532 -530 843 -668
1974 -943 2964 -721 224 50 451 130 669 235 316 151 547 312 765 531 l137 138
0 -385 0 -385 1305 0 1305 0 0 3660 0 3660 -1305 0 -1305 0 -2 -319 -3 -319
-90 80 c-538 479 -1224 772 -1939 828 -150 12 -421 11 -551 -1z m1226 -2279
c377 -38 737 -210 1008 -481 222 -223 372 -497 448 -821 25 -103 27 -131 28
-323 0 -237 -12 -323 -71 -506 -141 -437 -441 -786 -854 -994 -262 -132 -592
-195 -865 -166 -412 45 -767 216 -1039 502 -227 238 -367 504 -438 829 -19 91
-22 134 -22 315 0 179 3 225 23 315 114 536 455 964 946 1190 261 120 550 168
836 140z"/>
<path d="M33360 7923 c-960 -50 -1692 -265 -2295 -674 -803 -545 -1302 -1450
-1429 -2594 -141 -1270 117 -2354 753 -3155 92 -117 297 -328 411 -425 584
-497 1359 -797 2315 -899 461 -50 1100 -49 1535 0 1051 119 1797 483 2336
1140 194 236 353 492 538 864 85 172 206 432 206 445 0 3 -577 5 -1282 5
l-1283 0 -38 -68 c-123 -219 -368 -397 -672 -488 -374 -113 -903 -103 -1291
25 -199 65 -363 164 -515 309 -269 257 -410 615 -426 1075 l-6 167 2770 0
2771 0 6 43 c25 187 14 659 -24 966 -112 905 -454 1663 -995 2207 -640 643
-1515 986 -2690 1054 -153 9 -554 11 -695 3z m820 -1686 c131 -31 210 -57 323
-108 384 -172 691 -511 827 -914 l29 -85 -1569 0 -1569 0 15 38 c73 177 139
296 231 420 266 355 674 600 1103 661 41 6 86 13 100 15 14 3 111 3 215 1 157
-3 208 -8 295 -28z"/>
<path d="M29240 7863 c-536 -14 -1075 -107 -1461 -252 -367 -137 -637 -303
-883 -541 -135 -131 -231 -249 -371 -459 l-110 -163 -3 611 -2 611 -1365 0
-1365 0 0 -3660 0 -3660 1365 0 1365 0 0 1558 c0 1598 2 1709 41 1977 134 929
593 1485 1363 1650 307 66 661 65 1026 -1 206 -38 472 -111 613 -169 16 -7 17
57 17 1249 l0 1256 -67 -2 c-38 -1 -111 -3 -163 -5z"/>
<path d="M19910 4010 l0 -3660 1340 0 1340 0 0 3660 0 3660 -1340 0 -1340 0 0
-3660z"/>
</g>
</svg>
