<?xml version="1.0" standalone="no"?>
<!DOCTYPE svg PUBLIC "-//W3C//DTD SVG 20010904//EN"
 "http://www.w3.org/TR/2001/REC-SVG-20010904/DTD/svg10.dtd">
<svg version="1.0" xmlns="http://www.w3.org/2000/svg"
 width="585.000000pt" height="109.000000pt" viewBox="0 0 585.000000 109.000000"
 preserveAspectRatio="xMidYMid meet">
<metadata>
Created by potrace 1.16, written by Peter Selinger 2001-2019
</metadata>
<g transform="translate(0.000000,109.000000) scale(0.100000,-0.100000)"
fill="#000000" stroke="none">
<path d="M346 1054 c-154 -37 -283 -163 -332 -323 -20 -67 -18 -207 4 -279 35
-109 117 -210 220 -267 77 -43 151 -58 262 -53 91 5 107 8 177 43 81 40 167
116 196 171 l16 30 -84 45 -84 44 -18 -25 c-33 -49 -84 -89 -138 -109 -67 -25
-113 -26 -185 -5 -71 21 -159 107 -183 178 -47 139 12 279 145 345 110 55 231
37 318 -48 26 -25 49 -53 52 -61 4 -12 22 -6 89 29 46 24 86 45 87 47 9 6 -61
95 -105 134 -120 105 -277 143 -437 104z"/>
<path d="M1110 600 l0 -450 90 0 90 0 0 190 0 190 210 0 210 0 0 -190 0 -190
90 0 90 0 0 450 0 450 -90 0 -90 0 0 -170 0 -170 -210 0 -210 0 0 170 0 170
-90 0 -90 0 0 -450z"/>
<path d="M2258 611 c-109 -241 -198 -444 -198 -450 0 -7 31 -11 95 -11 l95 0
46 100 47 100 236 0 236 0 45 -100 45 -100 103 0 c56 0 102 1 102 3 0 2 -92
203 -204 448 l-203 444 -124 3 -124 2 -197 -439z m473 -48 l9 -23 -160 0 -159
0 58 128 c32 70 68 149 80 177 l22 49 70 -154 c39 -85 75 -165 80 -177z"/>
<path d="M3270 600 l0 -450 95 0 95 0 2 315 3 315 235 -314 235 -315 73 -1 72
0 0 450 0 450 -95 0 -95 0 -2 -255 -3 -255 -190 254 -190 255 -117 1 -118 0 0
-450z"/>
<path d="M4410 600 l0 -450 345 0 345 0 0 95 0 95 -250 0 -250 0 0 95 0 95
200 0 200 0 0 90 0 90 -200 0 -200 0 0 75 0 75 230 0 230 0 0 95 0 95 -325 0
-325 0 0 -450z"/>
<path d="M5350 600 l0 -450 250 0 250 0 0 95 0 95 -155 0 -155 0 0 355 0 355
-95 0 -95 0 0 -450z"/>
</g>
</svg>
